<svg xmlns="http://www.w3.org/2000/svg" viewBox="0 0 24 24" fill="currentColor" shape-rendering="crispEdges"><rect x="9" y="0" width="6" height="1"/><rect x="7" y="1" width="3" height="1"/><rect x="10" y="1" width="7" height="4"/><rect x="6" y="2" width="2" height="3"/><rect x="17" y="2" width="1" height="7"/><rect x="9" y="3" width="1" height="1"/><rect x="8" y="4" width="2" height="1"/><rect x="12" y="5" width="5" height="1"/><rect x="3" y="6" width="14" height="5"/><rect x="19" y="6" width="3" height="1"/><rect x="1" y="7" width="2" height="4"/><rect x="19" y="7" width="4" height="6"/><rect x="0" y="9" width="1" height="6"/><rect x="23" y="9" width="1" height="6"/><rect x="18" y="10" width="1" height="2"/><rect x="1" y="11" width="4" height="6"/><rect x="5" y="11" width="9" height="1"/><rect x="5" y="12" width="1" height="2"/><rect x="10" y="12" width="9" height="1"/><rect x="7" y="13" width="14" height="5"/><rect x="21" y="13" width="2" height="4"/><rect x="6" y="15" width="1" height="7"/><rect x="2" y="17" width="3" height="1"/><rect x="7" y="18" width="5" height="1"/><rect x="7" y="19" width="7" height="4"/><rect x="14" y="19" width="1" height="2"/><rect x="15" y="19" width="1" height="1"/><rect x="16" y="19" width="2" height="3"/><rect x="14" y="22" width="3" height="1"/><rect x="9" y="23" width="6" height="1"/></svg>
